<?xml version="1.0" encoding="UTF-8"?>
<!DOCTYPE svg PUBLIC "-//W3C//DTD SVG 1.1//EN" "http://www.w3.org/Graphics/SVG/1.1/DTD/svg11.dtd">
<!-- Creator: CorelDRAW -->
<svg xmlns="http://www.w3.org/2000/svg" xml:space="preserve" width="11in" height="11in" version="1.1" style="shape-rendering:geometricPrecision; text-rendering:geometricPrecision; image-rendering:optimizeQuality; fill-rule:evenodd; clip-rule:evenodd"
viewBox="0 0 11000 11000"
 xmlns:xlink="http://www.w3.org/1999/xlink"
 xmlns:xodm="http://www.corel.com/coreldraw/odm/2003">
 <defs>
  <style type="text/css">
   <![CDATA[
    .fil0 {fill:#E93338}
   ]]>
  </style>
 </defs>
 <g id="Layer_x0020_1">
  <metadata id="CorelCorpID_0Corel-Layer"/>
  <g id="_2569399596000">
   <path class="fil0" d="M8419.58 6741.89c-13.35,94.31 -56.58,313.31 -97.8,379.55 -63.43,247 -319.27,634.98 -459.78,709.09 -21.29,44.8 -45.75,52.12 -91.35,88.25 -33.43,26.48 -55.8,50.5 -90.07,78.31 -47.54,38.57 -152.44,117.24 -201.68,125.85l-114.45 81.09c-292.56,155.21 -613.71,226.57 -953.44,223.46 -271.9,-2.49 -952.81,-120 -1075.98,-290.13 -64.47,-9.81 -145.93,-76.8 -197.58,-118.63 -33.58,-27.19 -60.53,-46.21 -94.49,-74.89 -16.04,-13.55 -29.52,-23.75 -42.17,-40.96 -20.71,-28.17 -12.57,-11.31 -17.85,-38.74 -52.54,-24.16 -40.6,-18.51 -81.49,-65.31 -116.05,-132.87 -298.65,-352.06 -346.61,-514.31 -53.65,-43.95 -136.7,-329.78 -150.66,-421.68 -38.63,-84.85 -37.09,-234.2 -39.76,-337.51 -0.66,-72.86 -2.05,-146.57 -0.36,-219.38l16.48 -145.74c0.95,-3.32 4.51,-5.89 5.26,-12.84 0.73,-6.83 3.31,-8.51 5.64,-12.41 -17.01,-95.99 67.23,-363.42 108.65,-434.31 40.37,-136.39 209.41,-436.27 303.7,-483.15 23.94,-85.06 293.07,-337.22 402.28,-379.2 19.59,-39 49.74,-48.3 107.24,-85.66 125.13,-81.3 266.63,-149.1 409.15,-198.7 406.69,-141.55 966.04,-132.48 1370.01,7.82 147.76,51.31 440.15,191.67 515.22,272 95.02,55.08 221.66,169.09 298.35,247.6 43.19,44.21 53.92,50.94 65.5,95.19l21.91 16.59c62.21,51.93 125.91,149.94 169.63,221.39 43.07,70.41 127.09,201.76 130.66,286.87 61.52,59.58 139.7,347.98 120.14,451.85 28.17,44.13 25.54,78.2 28.62,152.59l-22.89 436.05zm-4045.3 -1975.95c-36.78,46.26 -118.62,86.5 -173.85,122.18l-454.12 355.5c-47.16,70.54 -96.89,121.9 -151.26,185.94 -30.82,36.3 -37.5,49.03 -64.99,87.48l-64.48 74.72c-31.26,85.82 -88.07,160.17 -128.68,254.37 -42.87,99.46 -67.9,181.41 -87.32,285.67l-25.37 174.43 9.06 379.88c39.49,46.34 65.66,227.19 90.64,295.7 30.23,82.92 104.59,211.82 111.96,269 68.2,50.59 147.3,209.62 274.55,322.73 56.59,50.3 67.97,43.91 83.56,93.67 73.34,44.81 127.36,115.81 204.19,174.91 67.96,52.28 131.87,93.78 208.34,145.83 147.73,100.57 323.78,161.13 464.76,254.13 88.63,23.83 195.29,73.12 288.05,105.72 108.96,38.3 192.73,63.03 297.94,89.92 225.25,57.57 443.77,101.11 681.74,120.82 350.96,64.25 810.31,8.23 1163.82,-21.26 187.91,-44.3 351.7,-65.81 543.09,-120.23 177.46,-50.47 344.5,-130.42 502.66,-172.55 10.01,-11.57 275.3,-145.86 317.73,-170.21 90.89,-52.15 252.91,-176.74 316.58,-198.54 13,-29.2 122.22,-116.86 160.81,-150.31 206.53,-179.06 388.93,-460.63 427.38,-487.2 6.37,-55.56 14.03,-50.37 43.8,-104.13 18.97,-34.26 34.21,-67.17 49.61,-102.56 28.61,-65.71 46.96,-164.73 90.15,-215.93 -5.37,-68.91 20.5,-145.44 28.65,-222.71 10.02,-94.91 7.82,-175.06 4.06,-269.81l-76.41 -362.59c-20.31,-30.72 -169.1,-337.82 -180.9,-374.01 -32.3,-19.21 -88.23,-109.65 -123.94,-152.1 -53.23,-63.27 -97.62,-99.27 -129.54,-165.86 -21.23,-8.74 -2.85,1.56 -27.72,-16.23 -3.87,-2.78 -21.72,-17.8 -26.3,-21.86l-363.52 -315.45c-36.84,-6.96 -11.31,0.69 -47.4,-16.63 -6.77,-3.25 -30.38,-18.06 -41.67,-25.17 -25.88,-16.31 -41.63,-26.97 -72.69,-45.82 -161.69,-98.12 -226.68,-124.07 -390.72,-198.89 -11.99,-5.47 -32.83,-15.15 -46.64,-23.32 -41.64,-24.64 -13.1,-5.94 -33.5,-24.02 -67.97,-0.23 -320.79,-99.01 -421.78,-126.49 -145.08,-39.48 -303.86,-73.46 -459.53,-97.78 -812.51,-126.9 -1644.61,-60.72 -2404.9,244.24 -81.2,32.57 -312.56,159.51 -365.89,164.82z"/>
   <path class="fil0" d="M7390.02 3337.65l-16.46 84.25c81.83,48.43 762.03,-10.04 870,4.26 -89.99,170.45 -674.48,98.72 -889.3,80.89l-15.3 115.19c202.58,37.25 476.92,16.19 681.43,9.57 -15.65,27.01 -2.42,53.89 -139.04,79.33 -66.54,12.38 -135.17,13.28 -205.32,10.37 -61.44,-2.55 -121.9,-8.99 -183.53,-15.83 -151.04,-16.77 -137.46,-29.5 -198.38,-6.86l-29.61 97.25c93.74,12.62 200.35,14.69 296.14,20.09 48,2.71 102.11,7.67 149.54,6.01 58.64,-2.06 93.39,-22.35 135.37,4.55 -152.8,128.37 -518.26,22.26 -622.88,47.13 -33.82,8.04 -365.68,281.89 -700.3,-73.81 -41.44,-44.05 -70.47,-120.13 -111.03,-135.32 -77.54,-9.07 -55.06,119.74 -245.56,236.88 -307.69,189.2 -538.35,-13.49 -568.41,-23 -117.25,-37.11 -592.69,80.35 -651.18,-68.83 210.78,-4.85 352.34,24.41 575.09,-11.08l-7.88 -105.52c-92.28,-8.02 -387.51,39.63 -587.47,21.72 -96.89,-8.67 -99.04,-18.87 -143.55,-73.72 93.49,-42.03 493.89,57.52 684.01,-33.73l-5.92 -84.81c-21.45,-7.32 -14.61,-7.18 -42.58,-9.23l-440.24 13.25c-145.96,-0.41 -357.65,21.32 -413.35,-98.68l869.58 13.52 -13.74 -86.98 -25.83 -77.26c-495.76,4.65 -1290.62,107.04 -1236.68,-523.92 62.43,0.45 156.8,67.85 253.64,87.91 577.47,119.67 1233.68,-120.73 1634.71,102.59 104.74,58.32 296.06,247.31 306.93,397.18l53.56 39 49.78 -54.43c2.25,-2.29 6.63,-6.65 10.07,-9.86 -7.93,-142.65 208.22,-331.66 312.67,-386.39 173.87,-91.12 412.23,-90.92 627.37,-76.38 239.62,16.2 899.48,68.98 1128.04,-57.38 65.56,-36.24 40.7,-47.6 120.27,-47.94 44.97,109.38 -48.79,276.11 -101.97,336.12 -249.94,282.02 -790.37,194.61 -1141.94,193.22l-20.72 60.69zm-3371.37 -691.54c-5.22,98.82 -10.5,192.39 13.85,286.22 20.33,78.38 70.09,148.55 80.43,195.55l23.45 16.92c18.85,15.61 9.82,7.15 29.91,26.14 131.89,124.67 184,145.25 244.21,341.78 78.37,38.56 71.93,105.24 126.62,164.15 25.7,27.69 41.91,33.14 79.1,55.93 55.36,33.91 56.29,23.27 66.08,81.68 59.57,37.71 80.26,80.48 152.19,121.81 268.98,154.56 573.04,19.25 752.94,90.15 566.3,223.2 680.42,-102.11 828.53,-147.02 104.61,88.48 187.01,187.35 384.17,217.24 306.37,46.45 331.96,-81.29 538.04,-90.89 196.62,-9.15 390.92,40.61 569.89,-32.02 213.87,-86.8 140.24,-175.18 351.04,-276.85 17.56,-101.9 136.58,-184.71 184.91,-283.48 119.92,-245.07 17.77,-73.3 192.96,-228.93l19.57 -17.34c2.88,-2.47 8.22,-6.69 10.61,-8.7 2.43,-2.04 7.01,-6.12 10.86,-8.7 13.85,-63.04 61.09,-115.79 84.19,-193.93 27.02,-91.37 23.69,-175.93 20.62,-273.18l-6.52 -209.55c-172.15,55.11 -184.96,233.36 -507.04,261.09 -240.28,20.68 -486.21,1.18 -727.75,-0.63 -737.39,-5.52 -730.71,-60.34 -1127.67,365.78 -220.66,-92.93 -57.41,-426.01 -1150.1,-369.01 -1262.51,65.86 -930.97,-155.93 -1232.42,-257.03l-12.65 172.81z"/>
   <path class="fil0" d="M6304.22 6474.82c68.95,-114.43 232.75,-71.31 338.37,-14.23 -34.95,56.31 -71.34,76.81 -163.24,85.03 -107.9,9.65 -141.6,8.87 -175.14,-70.8zm-873.3 -1222.75c-55.13,81.33 -137.04,131.63 -201.43,209.78 -65.57,79.59 -84.5,167.83 -134.52,237.17 -14.98,97.67 -33.5,195.88 -12.13,300.2 16.38,79.96 61.05,140.95 76.76,199.11 60.65,29.43 33.07,29.44 86.51,60.08 32.95,18.89 41.3,19.04 79.84,23.69l-13.12 -70.91c-53.27,-61.23 -143.47,-288.37 -75.91,-389.04 -9.88,-111.4 62.47,-264.48 137.83,-304.97 15.96,-60.77 79.45,-101.23 146.48,-151.75 54.5,-41.07 112.74,-75.5 179.59,-106.85 128.77,-60.41 286.61,-107.17 443.26,-130.72 169.06,-25.41 376.13,-43.75 529.17,22.21 98.94,42.64 300.43,140.2 319.26,250.15 115.14,72.31 159.23,339.76 124.91,501.21 -22.26,184 -138.21,373.82 -233.46,451.16 -148.06,-40.98 -170.34,-112.86 -388.29,-113.27 -172.34,-0.33 -274.93,43.8 -345.75,144.81 -93.72,173.88 30.93,301.36 163.7,340.54 182.3,53.81 299.5,-33.93 455.83,-48.11l105.52 306.91c8.88,15.43 185,444.74 186.68,455.42 42.33,26.98 94.51,111.02 139.22,152.54 23.29,21.63 154.44,109.49 155.11,110.4 158.9,33.12 241.39,24.43 387.78,-13.99 37.82,-60.98 98.14,-68.9 155.16,-180.9 53.63,-105.36 59.29,-206.8 54.12,-340.49l-15.53 -92.33c-34.24,24.06 -7.09,0.85 -34.2,29.15l-54.69 83.76c-13.43,22.55 -60.54,98.35 -73.46,111.52 -207.45,211.52 -449.15,-366.8 -506.48,-502.6 -47.48,-62.46 -133.57,-188.71 -158.28,-253.67 42.77,-54.81 97.97,-71.16 152.98,-126.44 52.02,-52.26 93.8,-109.58 142.21,-150.62 32.36,-79.57 82.04,-133.68 115.96,-231.96 39.41,-114.2 45.15,-205.5 36.09,-334.24 -85.39,-276.55 -90.72,-265.67 -250.6,-440.16l-41.43 -54.2c-43.02,-13.69 -116.93,-74.8 -169.76,-105.81 -65.48,-38.43 -123.95,-64.61 -198.69,-87.97 -192.2,-60.09 -304.61,-74.23 -519.45,-68.9l-71.28 5.83c-512.41,93.67 -451.28,77.65 -832.45,285.74 -31.09,16.98 -15.91,11.46 -43.06,18.51z"/>
   <path class="fil0" d="M5789.78 5555.59c-19.18,60.79 -58.44,116.71 -85.77,178.22 -24.12,54.27 -42.19,113.06 -63.72,164.73l-70.92 272.76 -50.95 354.2 -32.31 337.34c-7.76,141.97 -0.84,391.05 -123.36,453.35 -169.79,86.35 -346.7,-156.37 -406.6,-52.2l65.26 128.58c114.28,220.09 400.13,344.26 625.08,189.49 96.99,-66.74 97.1,-131.11 181.4,-209.53 1.1,-34.13 73.84,-441.28 83.09,-455.48 -13.87,-86.85 17.47,-590.17 50.03,-643.48 -14.78,-74.17 12.21,-384.07 53.02,-431.37 -4.74,-96.9 71.08,-333.42 144.04,-413.83 41.15,-45.35 4.62,-10.72 40.79,-35.84 5.39,-23.72 1.88,-14.4 19.19,-39.62 17.4,-25.34 0.67,1.81 22.87,-26.61 34.61,-44.29 22.19,-6.81 32.49,-60.69 -122.03,13.03 -202.13,41.6 -292.01,104.34 -125.85,87.86 -179.2,191.88 -183.55,180.24 -0.91,-2.43 -5.21,3.86 -8.06,5.4z"/>
   <path class="fil0" d="M6246.89 2615.12c11.2,-69.52 78.35,-208.47 130.72,-247.71 91.96,16.89 157.08,161.49 181.14,247.7 -36.86,52.37 -103.81,118.13 -142.91,166.1 -52.83,-20.2 -130.45,-113.2 -168.95,-166.09zm-16.85 -263.26c-44.39,103.52 -119.95,190.57 -139.55,311.04l319.18 331.91c54.46,-43.13 97,-112.9 149.77,-167.03 235.25,-241.31 181.26,-109.92 15.84,-475.79 -2.43,-1.93 -6.11,-4.81 -7.25,-5.87l-76.07 -101.43c-32.91,-49.83 -38.06,-63.35 -114.34,-72.04 -46.87,52.75 -90.93,136.34 -147.57,179.2z"/>
  </g>
 </g>
</svg>
